<?xml version="1.0" standalone="no"?>
<!DOCTYPE svg PUBLIC "-//W3C//DTD SVG 20010904//EN"
 "http://www.w3.org/TR/2001/REC-SVG-20010904/DTD/svg10.dtd">
<svg version="1.0" xmlns="http://www.w3.org/2000/svg"
 width="850.000000pt" height="1280.000000pt" viewBox="0 0 850.000000 1280.000000"
 preserveAspectRatio="xMidYMid meet">
<metadata>
Created by potrace 1.15, written by Peter Selinger 2001-2017
</metadata>
<g transform="translate(0.000000,1280.000000) scale(0.100000,-0.100000)"
fill="#f44336" stroke="none">
<path d="M6804 12789 c-26 -13 -50 -65 -64 -139 -15 -78 -50 -972 -48 -1213 2
-264 -19 -462 -78 -712 -25 -104 -54 -220 -66 -257 -19 -63 -48 -108 -68 -108
-11 0 -54 57 -64 83 -21 62 -26 216 -15 483 13 308 8 419 -36 789 -33 278 -58
343 -138 361 -27 6 -35 2 -59 -27 -56 -67 -59 -92 -62 -521 -2 -407 -23 -830
-53 -1078 -12 -95 -17 -226 -18 -441 -1 -168 -5 -310 -8 -316 -4 -6 -13 -82
-21 -169 -10 -100 -23 -183 -37 -224 -43 -132 -202 -461 -224 -464 -6 -1 -12
72 -15 191 -3 111 -10 197 -16 203 -7 7 -17 5 -33 -6 -32 -23 -138 -158 -165
-213 -40 -78 -114 -339 -140 -491 -14 -80 -43 -208 -65 -285 -21 -77 -53 -194
-71 -260 -38 -144 -81 -259 -127 -336 -18 -32 -87 -116 -153 -188 -65 -72
-144 -163 -173 -203 -59 -79 -229 -248 -299 -296 -68 -46 -103 -61 -191 -83
-161 -39 -173 -49 -259 -208 -53 -98 -76 -130 -155 -207 -50 -51 -140 -128
-200 -173 -74 -56 -125 -103 -163 -152 -75 -97 -140 -154 -191 -167 -50 -13
-76 -3 -85 33 -3 14 6 91 20 173 27 155 33 294 15 371 -11 47 -31 91 -97 212
-48 87 -62 145 -92 399 -34 277 -40 296 -124 349 -72 45 -120 90 -142 133 -8
16 -22 79 -30 141 -10 81 -22 128 -44 172 -43 89 -44 114 -16 258 31 152 32
208 7 262 -31 68 -86 105 -156 105 -42 0 -134 -34 -170 -62 -31 -24 -47 -12
-40 32 38 235 47 438 21 487 -15 31 -17 31 -69 26 -68 -7 -107 6 -194 63 -37
25 -79 47 -93 50 -56 12 -68 23 -90 81 -20 52 -22 76 -21 224 l1 165 -28 26
c-26 26 -79 44 -195 68 -67 13 -77 27 -70 92 9 77 -31 118 -127 133 -56 8 -89
-14 -125 -83 l-24 -47 -1 41 c-1 105 -43 227 -85 246 -19 8 -33 5 -75 -18 -54
-29 -111 -94 -165 -187 -15 -26 -28 -47 -29 -45 -1 2 1 66 5 143 10 205 10
480 -1 559 -9 75 -33 112 -64 100 -27 -10 -59 -84 -137 -314 -39 -118 -73
-216 -74 -217 -1 -2 -1 185 -1 415 0 522 -10 595 -78 578 -59 -15 -166 -243
-186 -397 -7 -50 -10 -186 -8 -331 2 -136 2 -245 1 -244 -2 1 -30 137 -63 302
-71 349 -107 509 -125 544 -33 64 -115 111 -194 113 -35 0 -48 -5 -64 -24 -17
-21 -19 -34 -13 -119 15 -232 146 -854 223 -1060 20 -52 80 -187 133 -300 54
-113 101 -221 105 -241 6 -32 3 -38 -32 -69 -21 -18 -43 -43 -50 -54 -17 -29
-16 -87 3 -159 40 -155 102 -221 439 -472 350 -260 451 -368 575 -615 86 -172
219 -538 239 -661 6 -36 11 -161 11 -277 l0 -212 94 -288 c102 -311 113 -348
126 -427 20 -121 -23 -173 -226 -274 -110 -55 -138 -74 -199 -136 -113 -115
-286 -375 -337 -505 -28 -73 -28 -191 1 -324 27 -126 27 -240 0 -437 -27 -195
-29 -397 -5 -493 28 -117 78 -201 139 -232 23 -13 31 -13 56 0 38 20 51 61 51
159 0 90 10 113 105 242 70 94 204 259 215 263 12 4 168 -70 273 -130 120 -67
238 -183 290 -285 43 -82 77 -204 77 -272 -1 -73 -33 -203 -65 -257 -16 -27
-99 -119 -184 -204 -100 -99 -166 -174 -184 -207 -38 -71 -62 -172 -97 -409
-33 -226 -49 -278 -90 -299 -71 -37 -385 -50 -716 -31 l-152 9 -65 -30 c-77
-36 -187 -139 -212 -198 -23 -56 -15 -132 24 -231 49 -122 105 -230 116 -224
6 3 10 71 10 172 1 109 5 172 12 179 8 8 33 5 94 -10 46 -11 134 -23 196 -27
l111 -7 -13 -38 c-8 -22 -19 -66 -25 -99 -10 -56 -9 -65 14 -115 23 -51 58
-105 105 -164 l19 -25 -5 45 c-10 90 83 281 154 314 56 27 125 -2 157 -64 21
-40 40 -223 32 -312 -11 -133 -41 -192 -109 -210 -60 -16 -147 -14 -191 5 -22
9 -41 14 -44 12 -7 -8 36 -63 84 -105 25 -22 66 -48 90 -57 41 -16 47 -16 92
1 85 32 249 221 278 324 16 52 16 63 -1 169 -18 119 -16 182 10 231 12 25 24
31 72 41 217 43 375 84 438 115 85 41 165 118 262 254 38 52 85 108 106 125
34 27 47 31 97 31 44 0 65 -5 87 -21 27 -21 28 -24 27 -110 -2 -95 -15 -142
-142 -484 -59 -158 -69 -219 -78 -478 l-7 -190 -111 -40 c-300 -108 -332 -116
-451 -114 -60 1 -120 -1 -132 -3 -33 -7 -53 -55 -53 -125 l0 -60 -41 0 c-61 0
-105 -25 -128 -73 -42 -88 -101 -343 -101 -437 0 -69 60 -113 173 -126 l53 -6
-18 168 c-10 92 -16 169 -14 171 2 2 40 -1 83 -7 99 -13 147 -4 292 56 58 24
106 42 107 41 1 -1 -17 -77 -41 -169 -48 -189 -72 -244 -151 -341 l-55 -68 38
7 c68 12 155 45 200 75 59 41 89 90 108 177 21 103 53 157 113 194 30 19 44
20 122 15 101 -8 113 -2 129 61 12 44 28 168 36 273 l6 76 252 6 c334 7 396
23 443 115 16 30 23 69 28 144 9 126 21 209 48 310 21 80 37 104 63 94 9 -3
51 -80 95 -171 92 -193 186 -355 206 -355 7 0 30 11 50 25 39 26 43 27 214 25
60 -1 107 -6 111 -12 4 -5 9 -31 12 -57 6 -52 48 -154 75 -184 16 -18 27 -19
148 -12 l130 7 70 -58 c90 -74 196 -143 231 -150 41 -8 60 12 98 98 53 123
116 201 145 183 6 -4 26 -38 46 -76 39 -79 94 -137 153 -163 62 -29 71 -20 71
71 0 95 6 108 44 93 42 -15 106 -12 153 9 44 20 53 36 51 88 -1 39 26 83 51
83 10 0 36 -19 58 -43 54 -58 92 -87 115 -87 11 0 42 23 68 52 l49 53 64 -18
c76 -20 123 -14 270 34 105 35 175 75 198 116 10 15 31 73 49 128 27 85 33
120 37 228 6 141 -2 126 76 142 56 11 116 93 117 157 0 42 -33 120 -87 206
-28 42 -62 110 -77 150 -56 146 -119 215 -336 365 -180 124 -599 395 -680 439
-65 36 -111 72 -195 155 -87 85 -129 118 -200 157 -49 27 -113 66 -141 87 -61
45 -217 231 -244 291 -35 77 -26 202 34 467 29 131 51 175 88 179 28 3 50 -20
128 -138 86 -131 188 -213 235 -192 24 11 38 44 75 169 27 94 37 100 124 61
126 -55 207 -55 262 3 16 17 55 49 87 71 40 27 64 53 79 83 l22 44 71 -6 c70
-5 72 -5 96 24 14 17 31 56 38 87 21 95 107 162 276 217 64 20 73 21 172 9
168 -20 245 1 325 87 26 28 67 91 92 139 51 102 67 120 153 175 39 25 86 69
121 112 65 79 283 379 300 414 7 11 28 88 47 170 20 81 74 263 121 403 68 201
87 271 91 331 6 87 -11 137 -53 160 -34 17 -64 78 -64 126 0 55 31 108 94 165
86 76 170 222 267 465 81 202 106 285 129 421 12 70 33 161 46 202 13 41 24
90 24 107 0 29 -5 35 -45 54 -67 32 -95 70 -95 130 0 56 15 76 82 110 64 32
114 75 125 106 22 60 43 141 43 165 0 14 -13 64 -30 111 -34 99 -40 205 -18
352 19 131 -5 175 -97 175 -38 0 -56 5 -68 18 -25 27 -21 50 18 112 36 56 45
109 22 128 -7 6 -42 12 -77 14 l-65 3 1 45 c1 64 49 164 114 236 63 69 99 137
131 247 18 61 20 80 11 89 -10 10 -17 10 -32 0 -18 -11 -22 -9 -39 19 -28 46
-33 88 -16 149 43 158 66 265 63 298 l-3 37 -82 12 c-106 15 -117 19 -153 54
-48 49 -42 82 36 197 37 53 83 130 102 170 l35 74 -16 52 c-33 103 -47 106
-151 26 -35 -27 -88 -64 -117 -83 -72 -46 -83 -60 -108 -142 -30 -101 -71
-161 -118 -174 -60 -17 -113 -14 -113 5 0 9 29 89 64 178 91 229 139 383 133
427 -3 20 -17 64 -32 98 -31 69 -52 77 -99 40 -26 -21 -111 -186 -136 -264
-33 -107 -97 -256 -132 -307 -46 -69 -72 -88 -116 -88 -28 0 -33 3 -27 18 3 9
22 82 41 162 19 80 46 179 59 220 14 41 39 140 55 220 17 80 45 199 61 264 17
66 44 205 60 310 43 269 34 382 -36 464 -30 34 -34 36 -58 25 -42 -19 -142
-245 -167 -378 -7 -33 -32 -136 -56 -230 -24 -93 -53 -237 -64 -320 -23 -175
-56 -308 -139 -570 -33 -104 -69 -221 -80 -260 -22 -76 -54 -135 -72 -135 -12
0 -6 145 12 295 23 189 28 367 19 655 -14 405 -64 859 -108 977 -16 44 -20 48
-52 50 -19 1 -45 -3 -56 -8z"/>
</g>
</svg>
