<?xml version="1.0" standalone="no"?>
<!DOCTYPE svg PUBLIC "-//W3C//DTD SVG 20010904//EN"
 "http://www.w3.org/TR/2001/REC-SVG-20010904/DTD/svg10.dtd">
<svg version="1.0" xmlns="http://www.w3.org/2000/svg"
 width="1027.000000pt" height="1280.000000pt" viewBox="0 0 1027.000000 1280.000000"
 preserveAspectRatio="xMidYMid meet">
<metadata>
Created by potrace 1.15, written by Peter Selinger 2001-2017
</metadata>
<g transform="translate(0.000000,1280.000000) scale(0.100000,-0.100000)"
fill="#673ab7" stroke="none">
<path d="M2824 12775 c-195 -42 -429 -184 -642 -390 -183 -176 -300 -335 -426
-576 -191 -365 -313 -811 -373 -1359 -22 -205 -25 -830 -5 -1035 14 -147 41
-360 48 -390 4 -17 -15 -34 -110 -98 -456 -308 -827 -727 -1046 -1182 -323
-671 -312 -1368 31 -1967 28 -49 50 -90 48 -92 -2 -2 -69 -13 -149 -26 -118
-19 -149 -28 -167 -46 -32 -32 -31 -87 2 -119 31 -32 59 -32 253 0 84 14 160
25 170 25 9 0 38 -26 64 -58 25 -31 83 -95 128 -141 44 -46 79 -85 78 -87 -2
-2 -80 -31 -173 -64 -182 -66 -215 -87 -215 -141 0 -37 48 -89 81 -89 12 0
122 36 245 81 l222 81 86 -63 c194 -144 456 -290 693 -388 114 -46 343 -125
439 -150 26 -7 45 -19 51 -33 23 -50 104 -146 166 -195 l64 -53 6 -117 c7
-143 28 -267 73 -432 l34 -124 -26 -131 c-21 -105 -26 -159 -25 -271 1 -198
60 -755 149 -1393 l18 -133 -72 -57 c-229 -182 -415 -372 -524 -534 -81 -121
-104 -184 -105 -284 0 -73 3 -85 28 -122 37 -53 89 -88 173 -117 246 -85 562
-36 918 142 60 30 137 72 170 93 l61 39 180 360 c99 199 182 355 186 348 9
-16 79 -263 79 -278 0 -6 -41 -57 -92 -113 -317 -351 -479 -627 -482 -821 0
-60 4 -78 27 -117 49 -84 113 -118 262 -140 257 -37 587 84 928 340 l87 66
193 1 c202 2 297 14 527 69 110 25 119 24 120 -19 1 -41 49 -155 89 -213 67
-95 152 -153 281 -194 66 -20 94 -23 245 -23 307 1 549 64 1255 325 265 98
365 130 430 139 770 109 1386 400 1685 799 225 300 365 757 365 1192 l0 97 41
7 c71 11 194 65 265 115 135 94 236 229 291 386 25 74 27 92 27 230 0 138 -2
156 -27 230 -42 119 -99 209 -191 300 -145 142 -288 205 -486 212 -137 6 -223
-10 -343 -62 l-82 -35 -64 72 c-273 310 -628 562 -1049 747 -444 195 -1246
418 -1962 546 -80 14 -153 29 -162 33 -14 6 -8 18 39 75 38 46 62 67 77 66 11
0 98 -13 191 -28 187 -31 218 -28 242 20 20 38 15 68 -15 98 -24 25 -43 30
-174 51 l-147 24 30 50 c60 100 158 313 193 421 117 355 128 750 31 1131 -139
544 -480 1058 -967 1456 -57 47 -131 104 -165 128 -53 37 -61 46 -50 59 44 58
369 405 567 605 394 400 602 588 940 850 557 432 870 889 870 1271 0 152 -42
259 -139 355 -127 126 -319 193 -596 206 -760 38 -1600 -454 -2314 -1354 -300
-379 -599 -882 -766 -1290 -29 -70 -42 -91 -54 -88 -39 12 -264 27 -415 29
l-166 2 5 30 c3 17 14 95 25 175 72 510 165 949 283 1347 48 158 86 325 109
478 20 137 17 516 -5 630 -41 206 -106 352 -205 456 -128 136 -296 186 -488
144z"/>
</g>
</svg>
